# xmcd
#
# Track frame offsets: 
#        150
#        20492
#        38379
#        54875
#        73984
#        84992
#        97356
#        116833
#        132376
#        147317
#        162130
#        176498
#
# Disc length: 2583 seconds
#
# Revision: 0
# Processed by: cddbd v1.5.2PL0 Copyright (c) Steve Scherf et al.
# Submitted via: ExactAudioCopyFreeDBPlugin 1.0
#
DISCID=a30a150c
DTITLE=Renata Drössler  - Znovuzrozena CD2
DYEAR=1900
DGENRE=Chanson
TTITLE0=Rebeka
TTITLE1=Něžně krásná
TTITLE2=Mé ruce vadnou
TTITLE3=Natísíckrát se vdávám
TTITLE4=Johnny
TTITLE5=Lili Marléne
TTITLE6=Iluze
TTITLE7=Ptáš se mně proč
TTITLE8=Píseň Františky
TTITLE9=Rámusy blues
TTITLE10=Opilá Balerína
TTITLE11=Balada o pomíjivém životě
EXTD=
EXTT0=
EXTT1=
EXTT2=
EXTT3=
EXTT4=
EXTT5=
EXTT6=
EXTT7=
EXTT8=
EXTT9=
EXTT10=
EXTT11=
PLAYORDER=
